# xmcd
#
# Track frame offsets:
#	150
#	17174
#	33904
#	53843
#	72229
#	86087
#	102545
#	127650
#	148171
#	163278
#	180370
#	199835
#
# Disc length: 2821 seconds
#
# Revision: 0
# Processed by: cddbd v1.5.2PL0 Copyright (c) Steve Scherf et al.
# Submitted via: EasyCDDAExtractor 2010.4.0.0
#
DISCID=a50b030c
DTITLE=한웅재 - 한웅재 1집 - 2nd Step
DYEAR=2009
DGENRE=Gospel
TTITLE0=의의 나무
TTITLE1=2nd Step
TTITLE2=갈보리 언덕
TTITLE3=그 나무 아래로(삭개오 이야기)
TTITLE4=가볍게 여행하기
TTITLE5=어미니, 새벽기도
TTITLE6=사명
TTITLE7=나를 찾은 이름(베드로 이야기)
TTITLE8=양화대교 북단
TTITLE9=고마운 사람들
TTITLE10=저 언덕을 넘어서면
TTITLE11=고마운 사람들 목소리
EXTD=
EXTT0=
EXTT1=
EXTT2=
EXTT3=
EXTT4=
EXTT5=
EXTT6=
EXTT7=
EXTT8=
EXTT9=
EXTT10=
EXTT11=
PLAYORDER=
